solid mr3020_top
facet normal -0.707106781186548 -0.707106781186547 -7.333621029811529e-33
  outer loop
    vertex 2.199999999999996 7.799999999999998 3.9999999999999996
    vertex 7.799999999999986 2.2000000000000015 1.9999999999999998
    vertex 7.799999999999986 2.2000000000000015 3.9999999999999996
  endloop
endfacet
facet normal -0.707106781186548 -0.707106781186547 -7.333621029811529e-33
  outer loop
    vertex 7.799999999999986 2.2000000000000015 1.9999999999999998
    vertex 2.199999999999996 7.799999999999998 3.9999999999999996
    vertex 7.799999999999986 2.2000000000000015 0.0032540000000005798
  endloop
endfacet
facet normal -0.707106781186548 -0.707106781186547 -7.333621029811529e-33
  outer loop
    vertex 7.799999999999986 2.2000000000000015 0.0032540000000005798
    vertex 2.199999999999996 7.799999999999998 3.9999999999999996
    vertex 2.199999999999996 7.799999999999998 0.0032540000000005798
  endloop
endfacet
facet normal -0.707106781186548 -0.707106781186547 -7.333621029811529e-33
  outer loop
    vertex 2.199999999999996 7.799999999999998 0.0032540000000005798
    vertex 2.199999999999996 7.799999999999998 3.9999999999999996
    vertex 2.199999999999996 7.799999999999998 1.9999999999999998
  endloop
endfacet
facet normal -0.7071067811865469 -0.7071067811865482 2.481115935187735e-17
  outer loop
    vertex 9.999999999999993 -1.836970198721029e-15 1.9999999999999998
    vertex 7.799999999999986 2.2000000000000015 0.0032540000000005798
    vertex 9.999999999999993 -1.836970198721029e-15 0.0032540000000005798
  endloop
endfacet
facet normal -0.7071067811865469 -0.7071067811865482 2.481115935187735e-17
  outer loop
    vertex 7.799999999999986 2.2000000000000015 0.0032540000000005798
    vertex 9.999999999999993 -1.836970198721029e-15 1.9999999999999998
    vertex 7.799999999999986 2.2000000000000015 1.9999999999999998
  endloop
endfacet
facet normal 0.7071067811865475 0.7071067811865475 4.9466572752723825e-17
  outer loop
    vertex 54.19999999999998 66.8 0.00022617003377432276
    vertex 54.19999999999999 66.8 1.9999999999999998
    vertex 59.79999999999999 61.19999999999999 0.00022617003377432276
  endloop
endfacet
facet normal 0.7071067811865475 0.7071067811865475 4.9466572752723825e-17
  outer loop
    vertex 59.79999999999999 61.19999999999999 0.00022617003377432276
    vertex 59.800000000000004 61.19999999999998 3.9999999999999996
    vertex 59.800000000000004 61.19999999999998 1.9999999999999998
  endloop
endfacet
facet normal 0.7071067811865475 0.7071067811865475 4.9466572752723825e-17
  outer loop
    vertex 59.800000000000004 61.19999999999998 3.9999999999999996
    vertex 59.79999999999999 61.19999999999999 0.00022617003377432276
    vertex 54.19999999999999 66.8 3.9999999999999996
  endloop
endfacet
facet normal 0.7071067811865475 0.7071067811865475 4.9466572752723825e-17
  outer loop
    vertex 54.19999999999999 66.8 3.9999999999999996
    vertex 59.79999999999999 61.19999999999999 0.00022617003377432276
    vertex 54.19999999999999 66.8 1.9999999999999998
  endloop
endfacet
facet normal -0.49999999999999767 0.8660254037844398 0.0
  outer loop
    vertex 15.750000000000005 26.70096189432334 1.9999999999999998
    vertex 16.060660171779826 26.939339828220177 0.0
    vertex 15.750000000000005 26.70096189432334 0.0
  endloop
endfacet
facet normal -0.7071067811865506 0.7071067811865445 0.0
  outer loop
    vertex 16.060660171779826 26.939339828220177 0.0
    vertex 15.750000000000005 26.70096189432334 1.9999999999999998
    vertex 16.060660171779826 26.939339828220177 1.9999999999999998
  endloop
endfacet
facet normal 0.7071067811865445 0.7071067811865506 0.0
  outer loop
    vertex 13.939339828220177 26.939339828220177 1.9999999999999998
    vertex 14.250000000000002 26.70096189432334 0.0
    vertex 13.939339828220177 26.939339828220177 0.0
  endloop
endfacet
facet normal 0.4999999999999997 0.8660254037844389 0.0
  outer loop
    vertex 14.250000000000002 26.70096189432334 0.0
    vertex 13.939339828220177 26.939339828220177 1.9999999999999998
    vertex 14.250000000000002 26.70096189432334 1.9999999999999998
  endloop
endfacet
facet normal -1.0 -6.1843102675789524e-15 0.0
  outer loop
    vertex 16.500000000000004 28.0 1.9999999999999998
    vertex 16.44888873943361 27.61177143234622 0.0
    vertex 16.44888873943361 27.61177143234622 1.9999999999999998
  endloop
endfacet
facet normal -0.9659258262890686 0.2588190451025196 0.0
  outer loop
    vertex 16.44888873943361 27.61177143234622 0.0
    vertex 16.500000000000004 28.0 1.9999999999999998
    vertex 16.500000000000004 28.0 0.0
  endloop
endfacet
facet normal -6.1843102675789524e-15 1.0 0.0
  outer loop
    vertex 15.0 26.499999999999996 1.9999999999999998
    vertex 15.388228567653785 26.551111260566397 0.0
    vertex 15.0 26.499999999999996 0.0
  endloop
endfacet
facet normal -0.25881904510251913 0.9659258262890688 0.0
  outer loop
    vertex 15.388228567653785 26.551111260566397 0.0
    vertex 15.0 26.499999999999996 1.9999999999999998
    vertex 15.388228567653785 26.551111260566397 1.9999999999999998
  endloop
endfacet
facet normal 4.373738568383403e-17 -1.0 1.6535843424604912e-32
  outer loop
    vertex 51.999999999999986 0.0 1.9999999999999998
    vertex 9.999999999999993 -1.836970198721029e-15 0.0032540000000005798
    vertex 51.999999999999986 0.0 0.0
  endloop
endfacet
facet normal 4.373738568383403e-17 -1.0 1.6535843424604912e-32
  outer loop
    vertex 9.999999999999993 -1.836970198721029e-15 0.0032540000000005798
    vertex 51.999999999999986 0.0 1.9999999999999998
    vertex 9.999999999999993 -1.836970198721029e-15 1.9999999999999998
  endloop
endfacet
facet normal 0.49999999999999767 -0.8660254037844398 0.0
  outer loop
    vertex 14.249999999999996 29.29903810567666 1.9999999999999998
    vertex 13.939339828220177 29.060660171779823 0.0
    vertex 14.249999999999996 29.29903810567666 0.0
  endloop
endfacet
facet normal 0.7071067811865506 -0.7071067811865445 0.0
  outer loop
    vertex 13.939339828220177 29.060660171779823 0.0
    vertex 14.249999999999996 29.29903810567666 1.9999999999999998
    vertex 13.939339828220177 29.060660171779823 1.9999999999999998
  endloop
endfacet
facet normal 0.9914448613738096 0.13052619222005782 0.0
  outer loop
    vertex 13.499999999999998 28.0 0.0
    vertex 13.551111260566397 27.611771432346217 1.9999999999999998
    vertex 13.551111260566397 27.611771432346217 0.0
  endloop
endfacet
facet normal 0.9659258262890688 0.25881904510251913 0.0
  outer loop
    vertex 13.551111260566397 27.611771432346217 1.9999999999999998
    vertex 13.499999999999998 28.0 0.0
    vertex 13.499999999999998 28.0 1.9999999999999998
  endloop
endfacet
facet normal 0.9659258262890681 -0.2588190451025218 0.0
  outer loop
    vertex 13.551111260566397 28.388228567653783 0.0
    vertex 13.499999999999998 28.0 1.9999999999999998
    vertex 13.499999999999998 28.0 0.0
  endloop
endfacet
facet normal 0.9914448613738096 -0.13052619222005782 0.0
  outer loop
    vertex 13.499999999999998 28.0 1.9999999999999998
    vertex 13.551111260566397 28.388228567653783 0.0
    vertex 13.551111260566397 28.388228567653783 1.9999999999999998
  endloop
endfacet
facet normal 0.8660254037844408 -0.4999999999999963 0.0
  outer loop
    vertex 13.700961894323338 28.749999999999996 0.0
    vertex 13.551111260566397 28.388228567653783 1.9999999999999998
    vertex 13.551111260566397 28.388228567653783 0.0
  endloop
endfacet
facet normal 0.9659258262890681 -0.2588190451025218 0.0
  outer loop
    vertex 13.551111260566397 28.388228567653783 1.9999999999999998
    vertex 13.700961894323338 28.749999999999996 0.0
    vertex 13.700961894323338 28.749999999999996 1.9999999999999998
  endloop
endfacet
facet normal -0.9659258262890688 -0.25881904510251913 0.0
  outer loop
    vertex 16.448888739433603 28.388228567653783 1.9999999999999998
    vertex 16.500000000000004 28.0 0.0
    vertex 16.500000000000004 28.0 1.9999999999999998
  endloop
endfacet
facet normal -1.0 -6.1843102675789524e-15 0.0
  outer loop
    vertex 16.500000000000004 28.0 0.0
    vertex 16.448888739433603 28.388228567653783 1.9999999999999998
    vertex 16.448888739433603 28.388228567653783 0.0
  endloop
endfacet
facet normal -0.500000000000002 -0.8660254037844375 0.0
  outer loop
    vertex 15.75 29.29903810567666 1.9999999999999998
    vertex 15.388228567653785 29.448888739433606 0.0
    vertex 15.75 29.29903810567666 0.0
  endloop
endfacet
facet normal -0.25881904510252135 -0.9659258262890683 0.0
  outer loop
    vertex 15.388228567653785 29.448888739433606 0.0
    vertex 15.75 29.29903810567666 1.9999999999999998
    vertex 15.388228567653785 29.448888739433606 1.9999999999999998
  endloop
endfacet
facet normal -0.25881904510252135 -0.9659258262890683 0.0
  outer loop
    vertex 15.388228567653785 29.448888739433606 1.9999999999999998
    vertex 15.0 29.500000000000004 0.0
    vertex 15.388228567653785 29.448888739433606 0.0
  endloop
endfacet
facet normal 7.128887916517523e-15 -1.0 0.0
  outer loop
    vertex 15.0 29.500000000000004 0.0
    vertex 15.388228567653785 29.448888739433606 1.9999999999999998
    vertex 15.0 29.500000000000004 1.9999999999999998
  endloop
endfacet
facet normal -0.9659258262890686 0.2588190451025196 0.0
  outer loop
    vertex 16.44888873943361 27.61177143234622 1.9999999999999998
    vertex 16.29903810567666 27.25 0.0
    vertex 16.29903810567666 27.25 1.9999999999999998
  endloop
endfacet
facet normal -0.8660254037844389 0.4999999999999997 0.0
  outer loop
    vertex 16.29903810567666 27.25 0.0
    vertex 16.44888873943361 27.61177143234622 1.9999999999999998
    vertex 16.44888873943361 27.61177143234622 0.0
  endloop
endfacet
facet normal -0.25881904510251913 0.9659258262890688 0.0
  outer loop
    vertex 15.388228567653785 26.551111260566397 1.9999999999999998
    vertex 15.750000000000005 26.70096189432334 0.0
    vertex 15.388228567653785 26.551111260566397 0.0
  endloop
endfacet
facet normal -0.49999999999999767 0.8660254037844398 0.0
  outer loop
    vertex 15.750000000000005 26.70096189432334 0.0
    vertex 15.388228567653785 26.551111260566397 1.9999999999999998
    vertex 15.750000000000005 26.70096189432334 1.9999999999999998
  endloop
endfacet
facet normal 0.2588190451025196 0.9659258262890686 0.0
  outer loop
    vertex 14.611771432346222 26.55111126056639 1.9999999999999998
    vertex 15.0 26.499999999999996 0.0
    vertex 14.611771432346222 26.55111126056639 0.0
  endloop
endfacet
facet normal -6.1843102675789524e-15 1.0 0.0
  outer loop
    vertex 15.0 26.499999999999996 0.0
    vertex 14.611771432346222 26.55111126056639 1.9999999999999998
    vertex 15.0 26.499999999999996 1.9999999999999998
  endloop
endfacet
facet normal 0.7071067811865506 -0.7071067811865445 0.0
  outer loop
    vertex 13.939339828220177 29.060660171779823 0.0
    vertex 13.700961894323338 28.749999999999996 1.9999999999999998
    vertex 13.700961894323338 28.749999999999996 0.0
  endloop
endfacet
facet normal 0.8660254037844408 -0.4999999999999963 0.0
  outer loop
    vertex 13.700961894323338 28.749999999999996 1.9999999999999998
    vertex 13.939339828220177 29.060660171779823 0.0
    vertex 13.939339828220177 29.060660171779823 1.9999999999999998
  endloop
endfacet
facet normal 7.128887916517523e-15 -1.0 0.0
  outer loop
    vertex 15.0 29.500000000000004 1.9999999999999998
    vertex 14.611771432346217 29.448888739433603 0.0
    vertex 15.0 29.500000000000004 0.0
  endloop
endfacet
facet normal 0.25881904510251913 -0.9659258262890688 0.0
  outer loop
    vertex 14.611771432346217 29.448888739433603 0.0
    vertex 15.0 29.500000000000004 1.9999999999999998
    vertex 14.611771432346217 29.448888739433603 1.9999999999999998
  endloop
endfacet
facet normal -0.7071067811865445 -0.7071067811865506 0.0
  outer loop
    vertex 16.060660171779826 29.060660171779823 1.9999999999999998
    vertex 16.29903810567666 28.750000000000004 0.0
    vertex 16.29903810567666 28.750000000000004 1.9999999999999998
  endloop
endfacet
facet normal -0.8660254037844398 -0.49999999999999767 0.0
  outer loop
    vertex 16.29903810567666 28.750000000000004 0.0
    vertex 16.060660171779826 29.060660171779823 1.9999999999999998
    vertex 16.060660171779826 29.060660171779823 0.0
  endloop
endfacet
facet normal -0.8660254037844398 -0.49999999999999767 0.0
  outer loop
    vertex 16.29903810567666 28.750000000000004 1.9999999999999998
    vertex 16.448888739433603 28.388228567653783 0.0
    vertex 16.448888739433603 28.388228567653783 1.9999999999999998
  endloop
endfacet
facet normal -0.9659258262890688 -0.25881904510251913 0.0
  outer loop
    vertex 16.448888739433603 28.388228567653783 0.0
    vertex 16.29903810567666 28.750000000000004 1.9999999999999998
    vertex 16.29903810567666 28.750000000000004 0.0
  endloop
endfacet
facet normal 0.25881904510251913 -0.9659258262890688 0.0
  outer loop
    vertex 14.611771432346217 29.448888739433603 1.9999999999999998
    vertex 14.249999999999996 29.29903810567666 0.0
    vertex 14.611771432346217 29.448888739433603 0.0
  endloop
endfacet
facet normal 0.49999999999999767 -0.8660254037844398 0.0
  outer loop
    vertex 14.249999999999996 29.29903810567666 0.0
    vertex 14.611771432346217 29.448888739433603 1.9999999999999998
    vertex 14.249999999999996 29.29903810567666 1.9999999999999998
  endloop
endfacet
facet normal -0.7071067811865445 -0.7071067811865506 0.0
  outer loop
    vertex 16.060660171779826 29.060660171779823 1.9999999999999998
    vertex 15.75 29.29903810567666 0.0
    vertex 16.060660171779826 29.060660171779823 0.0
  endloop
endfacet
facet normal -0.500000000000002 -0.8660254037844375 0.0
  outer loop
    vertex 15.75 29.29903810567666 0.0
    vertex 16.060660171779826 29.060660171779823 1.9999999999999998
    vertex 15.75 29.29903810567666 1.9999999999999998
  endloop
endfacet
facet normal -0.8660254037844389 0.4999999999999997 0.0
  outer loop
    vertex 16.29903810567666 27.25 1.9999999999999998
    vertex 16.060660171779826 26.939339828220177 0.0
    vertex 16.060660171779826 26.939339828220177 1.9999999999999998
  endloop
endfacet
facet normal -0.7071067811865506 0.7071067811865445 0.0
  outer loop
    vertex 16.060660171779826 26.939339828220177 0.0
    vertex 16.29903810567666 27.25 1.9999999999999998
    vertex 16.29903810567666 27.25 0.0
  endloop
endfacet
facet normal 0.4999999999999997 0.8660254037844389 0.0
  outer loop
    vertex 14.250000000000002 26.70096189432334 1.9999999999999998
    vertex 14.611771432346222 26.55111126056639 0.0
    vertex 14.250000000000002 26.70096189432334 0.0
  endloop
endfacet
facet normal 0.2588190451025196 0.9659258262890686 0.0
  outer loop
    vertex 14.611771432346222 26.55111126056639 0.0
    vertex 14.250000000000002 26.70096189432334 1.9999999999999998
    vertex 14.611771432346222 26.55111126056639 1.9999999999999998
  endloop
endfacet
facet normal 0.8660254037844398 0.49999999999999767 0.0
  outer loop
    vertex 13.700961894323338 27.249999999999996 0.0
    vertex 13.939339828220177 26.939339828220177 1.9999999999999998
    vertex 13.939339828220177 26.939339828220177 0.0
  endloop
endfacet
facet normal 0.7071067811865445 0.7071067811865506 0.0
  outer loop
    vertex 13.939339828220177 26.939339828220177 1.9999999999999998
    vertex 13.700961894323338 27.249999999999996 0.0
    vertex 13.700961894323338 27.249999999999996 1.9999999999999998
  endloop
endfacet
facet normal 0.9659258262890688 0.25881904510251913 0.0
  outer loop
    vertex 13.551111260566397 27.611771432346217 0.0
    vertex 13.700961894323338 27.249999999999996 1.9999999999999998
    vertex 13.700961894323338 27.249999999999996 0.0
  endloop
endfacet
facet normal 0.8660254037844398 0.49999999999999767 0.0
  outer loop
    vertex 13.700961894323338 27.249999999999996 1.9999999999999998
    vertex 13.551111260566397 27.611771432346217 0.0
    vertex 13.551111260566397 27.611771432346217 1.9999999999999998
  endloop
endfacet
facet normal 0.7071067811865452 -0.7071067811865498 -9.892195807074487e-16
  outer loop
    vertex 54.2 2.2000000000000015 1.9999999999999998
    vertex 51.999999999999986 0.0 0.0
    vertex 54.2 2.2000000000000073 0.0
  endloop
endfacet
facet normal 0.7071067811865452 -0.7071067811865498 -9.892195807074487e-16
  outer loop
    vertex 51.999999999999986 0.0 0.0
    vertex 54.2 2.2000000000000015 1.9999999999999998
    vertex 51.999999999999986 0.0 1.9999999999999998
  endloop
endfacet
facet normal 0.7071067811865479 -0.707106781186547 -5.93531748424467e-16
  outer loop
    vertex 59.79999999999999 7.8 0.0
    vertex 59.79999999999999 7.799999999999998 1.9999999999999998
    vertex 54.2 2.2000000000000073 0.0
  endloop
endfacet
facet normal 0.7071067811865479 -0.707106781186547 -5.93531748424467e-16
  outer loop
    vertex 54.2 2.2000000000000073 0.0
    vertex 54.2 2.2000000000000015 3.9999999999999996
    vertex 54.2 2.2000000000000015 1.9999999999999998
  endloop
endfacet
facet normal 0.7071067811865479 -0.707106781186547 -5.93531748424467e-16
  outer loop
    vertex 54.2 2.2000000000000015 3.9999999999999996
    vertex 54.2 2.2000000000000073 0.0
    vertex 59.79999999999999 7.799999999999998 3.9999999999999996
  endloop
endfacet
facet normal 0.7071067811865479 -0.707106781186547 -5.93531748424467e-16
  outer loop
    vertex 59.79999999999999 7.799999999999998 3.9999999999999996
    vertex 54.2 2.2000000000000073 0.0
    vertex 59.79999999999999 7.799999999999998 1.9999999999999998
  endloop
endfacet
facet normal -0.0 -0.0 1.0
  outer loop
    vertex 9.999999999999993 -1.836970198721029e-15 1.9999999999999998
    vertex 9.71036450530773 2.200000000000002 1.9999999999999998
    vertex 7.799999999999986 2.2000000000000015 1.9999999999999998
  endloop
endfacet
facet normal -0.0 -0.0 1.0
  outer loop
    vertex 9.71036450530773 2.200000000000002 1.9999999999999998
    vertex 9.999999999999993 -1.836970198721029e-15 1.9999999999999998
    vertex 54.2 2.2000000000000015 1.9999999999999998
  endloop
endfacet
facet normal -0.0 -0.0 1.0
  outer loop
    vertex 54.2 2.2000000000000015 1.9999999999999998
    vertex 9.999999999999993 -1.836970198721029e-15 1.9999999999999998
    vertex 51.999999999999986 0.0 1.9999999999999998
  endloop
endfacet
facet normal -2.0377795062193555e-18 -1.0 -5.1518704568753855e-17
  outer loop
    vertex 54.2 2.2000000000000015 3.9999999999999996
    vertex 9.71036450530773 2.200000000000002 1.9999999999999998
    vertex 54.2 2.2000000000000015 1.9999999999999998
  endloop
endfacet
facet normal -2.0377795062193555e-18 -1.0 -5.1518704568753855e-17
  outer loop
    vertex 9.71036450530773 2.200000000000002 1.9999999999999998
    vertex 54.2 2.2000000000000015 3.9999999999999996
    vertex 7.799999999999986 2.2000000000000015 1.9999999999999998
  endloop
endfacet
facet normal -2.0377795062193555e-18 -1.0 -5.1518704568753855e-17
  outer loop
    vertex 7.799999999999986 2.2000000000000015 1.9999999999999998
    vertex 54.2 2.2000000000000015 3.9999999999999996
    vertex 7.799999999999986 2.2000000000000015 3.9999999999999996
  endloop
endfacet
facet normal 0.0 0.0 1.0
  outer loop
    vertex 13.500000000000004 25.40192378864668 1.9999999999999998
    vertex 13.499999999999998 28.0 1.9999999999999998
    vertex 12.0 28.0 1.9999999999999998
  endloop
endfacet
facet normal 0.0 0.0 1.0
  outer loop
    vertex 13.499999999999998 28.0 1.9999999999999998
    vertex 13.500000000000004 25.40192378864668 1.9999999999999998
    vertex 13.551111260566397 27.611771432346217 1.9999999999999998
  endloop
endfacet
facet normal 0.0 0.0 1.0
  outer loop
    vertex 13.551111260566397 27.611771432346217 1.9999999999999998
    vertex 13.500000000000004 25.40192378864668 1.9999999999999998
    vertex 13.700961894323338 27.249999999999996 1.9999999999999998
  endloop
endfacet
facet normal 0.0 0.0 1.0
  outer loop
    vertex 13.700961894323338 27.249999999999996 1.9999999999999998
    vertex 13.500000000000004 25.40192378864668 1.9999999999999998
    vertex 13.939339828220177 26.939339828220177 1.9999999999999998
  endloop
endfacet
facet normal 0.0 0.0 1.0
  outer loop
    vertex 13.939339828220177 26.939339828220177 1.9999999999999998
    vertex 13.500000000000004 25.40192378864668 1.9999999999999998
    vertex 14.250000000000002 26.70096189432334 1.9999999999999998
  endloop
endfacet
facet normal 0.0 0.0 1.0
  outer loop
    vertex 14.250000000000002 26.70096189432334 1.9999999999999998
    vertex 13.500000000000004 25.40192378864668 1.9999999999999998
    vertex 16.500000000000004 25.40192378864668 1.9999999999999998
  endloop
endfacet
facet normal 0.0 0.0 1.0
  outer loop
    vertex 14.250000000000002 26.70096189432334 1.9999999999999998
    vertex 16.500000000000004 25.40192378864668 1.9999999999999998
    vertex 14.611771432346222 26.55111126056639 1.9999999999999998
  endloop
endfacet
facet normal 0.0 0.0 1.0
  outer loop
    vertex 14.611771432346222 26.55111126056639 1.9999999999999998
    vertex 16.500000000000004 25.40192378864668 1.9999999999999998
    vertex 15.0 26.499999999999996 1.9999999999999998
  endloop
endfacet
facet normal 0.0 0.0 1.0
  outer loop
    vertex 15.0 26.499999999999996 1.9999999999999998
    vertex 16.500000000000004 25.40192378864668 1.9999999999999998
    vertex 15.388228567653785 26.551111260566397 1.9999999999999998
  endloop
endfacet
facet normal 0.0 0.0 1.0
  outer loop
    vertex 15.388228567653785 26.551111260566397 1.9999999999999998
    vertex 16.500000000000004 25.40192378864668 1.9999999999999998
    vertex 15.750000000000005 26.70096189432334 1.9999999999999998
  endloop
endfacet
facet normal 0.0 0.0 1.0
  outer loop
    vertex 15.750000000000005 26.70096189432334 1.9999999999999998
    vertex 16.500000000000004 25.40192378864668 1.9999999999999998
    vertex 16.060660171779826 26.939339828220177 1.9999999999999998
  endloop
endfacet
facet normal 0.0 0.0 1.0
  outer loop
    vertex 16.060660171779826 26.939339828220177 1.9999999999999998
    vertex 16.500000000000004 25.40192378864668 1.9999999999999998
    vertex 16.29903810567666 27.25 1.9999999999999998
  endloop
endfacet
facet normal 0.0 0.0 1.0
  outer loop
    vertex 16.29903810567666 27.25 1.9999999999999998
    vertex 16.500000000000004 25.40192378864668 1.9999999999999998
    vertex 16.44888873943361 27.61177143234622 1.9999999999999998
  endloop
endfacet
facet normal 0.0 0.0 1.0
  outer loop
    vertex 16.44888873943361 27.61177143234622 1.9999999999999998
    vertex 16.500000000000004 25.40192378864668 1.9999999999999998
    vertex 16.500000000000004 28.0 1.9999999999999998
  endloop
endfacet
facet normal 0.0 0.0 1.0
  outer loop
    vertex 16.500000000000004 28.0 1.9999999999999998
    vertex 16.500000000000004 25.40192378864668 1.9999999999999998
    vertex 18.0 28.0 1.9999999999999998
  endloop
endfacet
facet normal 0.0 0.0 1.0
  outer loop
    vertex 13.499999999999998 28.0 1.9999999999999998
    vertex 13.499999999999998 30.598076211353316 1.9999999999999998
    vertex 12.0 28.0 1.9999999999999998
  endloop
endfacet
facet normal 0.0 0.0 1.0
  outer loop
    vertex 13.499999999999998 30.598076211353316 1.9999999999999998
    vertex 13.499999999999998 28.0 1.9999999999999998
    vertex 13.551111260566397 28.388228567653783 1.9999999999999998
  endloop
endfacet
facet normal 0.0 0.0 1.0
  outer loop
    vertex 13.499999999999998 30.598076211353316 1.9999999999999998
    vertex 13.551111260566397 28.388228567653783 1.9999999999999998
    vertex 13.700961894323338 28.749999999999996 1.9999999999999998
  endloop
endfacet
facet normal 0.0 0.0 1.0
  outer loop
    vertex 13.499999999999998 30.598076211353316 1.9999999999999998
    vertex 13.700961894323338 28.749999999999996 1.9999999999999998
    vertex 13.939339828220177 29.060660171779823 1.9999999999999998
  endloop
endfacet
facet normal 0.0 0.0 1.0
  outer loop
    vertex 13.499999999999998 30.598076211353316 1.9999999999999998
    vertex 13.939339828220177 29.060660171779823 1.9999999999999998
    vertex 14.249999999999996 29.29903810567666 1.9999999999999998
  endloop
endfacet
facet normal 0.0 0.0 1.0
  outer loop
    vertex 13.499999999999998 30.598076211353316 1.9999999999999998
    vertex 14.249999999999996 29.29903810567666 1.9999999999999998
    vertex 16.499999999999996 30.598076211353316 1.9999999999999998
  endloop
endfacet
facet normal 0.0 0.0 1.0
  outer loop
    vertex 16.499999999999996 30.598076211353316 1.9999999999999998
    vertex 14.249999999999996 29.29903810567666 1.9999999999999998
    vertex 14.611771432346217 29.448888739433603 1.9999999999999998
  endloop
endfacet
facet normal 0.0 0.0 1.0
  outer loop
    vertex 16.499999999999996 30.598076211353316 1.9999999999999998
    vertex 14.611771432346217 29.448888739433603 1.9999999999999998
    vertex 15.0 29.500000000000004 1.9999999999999998
  endloop
endfacet
facet normal 0.0 0.0 1.0
  outer loop
    vertex 16.499999999999996 30.598076211353316 1.9999999999999998
    vertex 15.0 29.500000000000004 1.9999999999999998
    vertex 15.388228567653785 29.448888739433606 1.9999999999999998
  endloop
endfacet
facet normal 0.0 0.0 1.0
  outer loop
    vertex 16.499999999999996 30.598076211353316 1.9999999999999998
    vertex 15.388228567653785 29.448888739433606 1.9999999999999998
    vertex 15.75 29.29903810567666 1.9999999999999998
  endloop
endfacet
facet normal 0.0 0.0 1.0
  outer loop
    vertex 16.499999999999996 30.598076211353316 1.9999999999999998
    vertex 15.75 29.29903810567666 1.9999999999999998
    vertex 16.060660171779826 29.060660171779823 1.9999999999999998
  endloop
endfacet
facet normal 0.0 0.0 1.0
  outer loop
    vertex 16.499999999999996 30.598076211353316 1.9999999999999998
    vertex 16.060660171779826 29.060660171779823 1.9999999999999998
    vertex 16.29903810567666 28.750000000000004 1.9999999999999998
  endloop
endfacet
facet normal 0.0 0.0 1.0
  outer loop
    vertex 16.499999999999996 30.598076211353316 1.9999999999999998
    vertex 16.29903810567666 28.750000000000004 1.9999999999999998
    vertex 16.448888739433603 28.388228567653783 1.9999999999999998
  endloop
endfacet
facet normal 0.0 0.0 1.0
  outer loop
    vertex 16.499999999999996 30.598076211353316 1.9999999999999998
    vertex 16.448888739433603 28.388228567653783 1.9999999999999998
    vertex 16.500000000000004 28.0 1.9999999999999998
  endloop
endfacet
facet normal 0.0 0.0 1.0
  outer loop
    vertex 16.499999999999996 30.598076211353316 1.9999999999999998
    vertex 16.500000000000004 28.0 1.9999999999999998
    vertex 18.0 28.0 1.9999999999999998
  endloop
endfacet
facet normal -0.8660254037844385 -0.5000000000000006 0.0
  outer loop
    vertex 16.499999999999996 30.598076211353316 3.9999999999999996
    vertex 18.0 28.0 1.9999999999999998
    vertex 18.0 28.0 3.9999999999999996
  endloop
endfacet
facet normal -0.8660254037844385 -0.5000000000000006 0.0
  outer loop
    vertex 18.0 28.0 1.9999999999999998
    vertex 16.499999999999996 30.598076211353316 3.9999999999999996
    vertex 16.499999999999996 30.598076211353316 1.9999999999999998
  endloop
endfacet
facet normal 0.8660254037844393 -0.4999999999999991 0.0
  outer loop
    vertex 13.499999999999998 30.598076211353316 1.9999999999999998
    vertex 12.0 28.0 3.9999999999999996
    vertex 12.0 28.0 1.9999999999999998
  endloop
endfacet
facet normal 0.8660254037844393 -0.4999999999999991 0.0
  outer loop
    vertex 12.0 28.0 3.9999999999999996
    vertex 13.499999999999998 30.598076211353316 1.9999999999999998
    vertex 13.499999999999998 30.598076211353316 3.9999999999999996
  endloop
endfacet
facet normal 0.0 -1.0 0.0
  outer loop
    vertex 16.499999999999996 30.598076211353316 3.9999999999999996
    vertex 13.499999999999998 30.598076211353316 1.9999999999999998
    vertex 16.499999999999996 30.598076211353316 1.9999999999999998
  endloop
endfacet
facet normal 0.0 -1.0 0.0
  outer loop
    vertex 13.499999999999998 30.598076211353316 1.9999999999999998
    vertex 16.499999999999996 30.598076211353316 3.9999999999999996
    vertex 13.499999999999998 30.598076211353316 3.9999999999999996
  endloop
endfacet
facet normal 1.0 -1.5611739451246743e-16 -1.5850043782401558e-15
  outer loop
    vertex 59.79999999999999 59.28963549469227 1.9999999999999998
    vertex 59.79999999999999 7.799999999999998 3.9999999999999996
    vertex 59.79999999999999 7.799999999999998 1.9999999999999998
  endloop
endfacet
facet normal 1.0 -1.5611739451246743e-16 -1.5850043782401558e-15
  outer loop
    vertex 59.79999999999999 7.799999999999998 3.9999999999999996
    vertex 59.79999999999999 59.28963549469227 1.9999999999999998
    vertex 59.800000000000004 61.19999999999998 3.9999999999999996
  endloop
endfacet
facet normal 1.0 -1.5611739451246743e-16 -1.5850043782401558e-15
  outer loop
    vertex 59.800000000000004 61.19999999999998 3.9999999999999996
    vertex 59.79999999999999 59.28963549469227 1.9999999999999998
    vertex 59.800000000000004 61.19999999999998 1.9999999999999998
  endloop
endfacet
facet normal 0.0 1.0 0.0
  outer loop
    vertex 13.500000000000004 25.40192378864668 3.9999999999999996
    vertex 16.500000000000004 25.40192378864668 1.9999999999999998
    vertex 13.500000000000004 25.40192378864668 1.9999999999999998
  endloop
endfacet
facet normal 0.0 1.0 0.0
  outer loop
    vertex 16.500000000000004 25.40192378864668 1.9999999999999998
    vertex 13.500000000000004 25.40192378864668 3.9999999999999996
    vertex 16.500000000000004 25.40192378864668 3.9999999999999996
  endloop
endfacet
facet normal -0.8660254037844393 0.4999999999999991 0.0
  outer loop
    vertex 18.0 28.0 3.9999999999999996
    vertex 16.500000000000004 25.40192378864668 1.9999999999999998
    vertex 16.500000000000004 25.40192378864668 3.9999999999999996
  endloop
endfacet
facet normal -0.8660254037844393 0.4999999999999991 0.0
  outer loop
    vertex 16.500000000000004 25.40192378864668 1.9999999999999998
    vertex 18.0 28.0 3.9999999999999996
    vertex 18.0 28.0 1.9999999999999998
  endloop
endfacet
facet normal 0.8660254037844385 0.5000000000000006 0.0
  outer loop
    vertex 12.0 28.0 1.9999999999999998
    vertex 13.500000000000004 25.40192378864668 3.9999999999999996
    vertex 13.500000000000004 25.40192378864668 1.9999999999999998
  endloop
endfacet
facet normal 0.8660254037844385 0.5000000000000006 0.0
  outer loop
    vertex 13.500000000000004 25.40192378864668 3.9999999999999996
    vertex 12.0 28.0 1.9999999999999998
    vertex 12.0 28.0 3.9999999999999996
  endloop
endfacet
facet normal 1.0 0.0 0.0
  outer loop
    vertex 16.160139609318716 16.53409890895675 0.001762339542904323
    vertex 16.160139609318716 8.465901091043245 3.9999999999999996
    vertex 16.160139609318716 8.465901091043245 0.001762339542904323
  endloop
endfacet
facet normal 1.0 0.0 0.0
  outer loop
    vertex 16.160139609318716 8.465901091043245 3.9999999999999996
    vertex 16.160139609318716 16.53409890895675 0.001762339542904323
    vertex 16.160139609318716 16.53409890895675 3.9999999999999996
  endloop
endfacet
facet normal -0.0 1.0 -0.0
  outer loop
    vertex 16.160139609318716 8.465901091043245 3.9999999999999996
    vertex 28.660139609318716 8.465901091043245 0.001762339542904323
    vertex 16.160139609318716 8.465901091043245 0.001762339542904323
  endloop
endfacet
facet normal -0.0 1.0 -0.0
  outer loop
    vertex 28.660139609318716 8.465901091043245 0.001762339542904323
    vertex 16.160139609318716 8.465901091043245 3.9999999999999996
    vertex 28.660139609318716 8.465901091043245 3.9999999999999996
  endloop
endfacet
facet normal -1.0 0.0 -0.0
  outer loop
    vertex 28.660139609318716 16.53409890895675 3.9999999999999996
    vertex 28.660139609318716 8.465901091043245 0.001762339542904323
    vertex 28.660139609318716 8.465901091043245 3.9999999999999996
  endloop
endfacet
facet normal -1.0 0.0 -0.0
  outer loop
    vertex 28.660139609318716 8.465901091043245 0.001762339542904323
    vertex 28.660139609318716 16.53409890895675 3.9999999999999996
    vertex 28.660139609318716 16.53409890895675 0.001762339542904323
  endloop
endfacet
facet normal -0.0 -1.0 -0.0
  outer loop
    vertex 28.660139609318716 16.53409890895675 3.9999999999999996
    vertex 16.160139609318716 16.53409890895675 0.001762339542904323
    vertex 28.660139609318716 16.53409890895675 0.001762339542904323
  endloop
endfacet
facet normal -0.0 -1.0 -0.0
  outer loop
    vertex 16.160139609318716 16.53409890895675 0.001762339542904323
    vertex 28.660139609318716 16.53409890895675 3.9999999999999996
    vertex 16.160139609318716 16.53409890895675 3.9999999999999996
  endloop
endfacet
facet normal -0.00014812634301901206 3.476667824273487e-06 -0.9999999890232495
  outer loop
    vertex 62.249999999999986 58.74999999999999 0.00011365347921341272
    vertex 61.999999999999986 10.0 0.0
    vertex 61.999999999999986 58.99999999999999 0.00022617003377432276
  endloop
endfacet
facet normal -0.00014812634301901206 3.476667824273487e-06 -0.9999999890232495
  outer loop
    vertex 61.999999999999986 10.0 0.0
    vertex 62.249999999999986 58.74999999999999 0.00011365347921341272
    vertex 62.249999999999986 10.249999999999998 1.136924652502712e-06
  endloop
endfacet
facet normal -1.1278170015709584e-05 -6.550637909974914e-07 0.999999999936187
  outer loop
    vertex 62.250296249711475 10.249993046734163 1.9999810337528667
    vertex 59.79999999999999 59.28963549469227 1.9999999999999998
    vertex 59.79999999999999 7.799999999999998 1.9999999999999998
  endloop
endfacet
facet normal -1.1278170015709584e-05 -6.550637909974914e-07 0.999999999936187
  outer loop
    vertex 59.79999999999999 59.28963549469227 1.9999999999999998
    vertex 62.250296249711475 10.249993046734163 1.9999810337528667
    vertex 59.800000000000004 61.19999999999998 1.9999999999999998
  endloop
endfacet
facet normal -1.1278170015709584e-05 -6.550637909974914e-07 0.999999999936187
  outer loop
    vertex 59.800000000000004 61.19999999999998 1.9999999999999998
    vertex 62.250296249711475 10.249993046734163 1.9999810337528667
    vertex 62.250296249711475 58.749993046734154 2.0000935503074277
  endloop
endfacet
facet normal 0.9999999890292931 3.4277042669018526e-10 -0.0001481263430221177
  outer loop
    vertex 62.249999999999986 10.249999999999998 1.136924652502712e-06
    vertex 62.250296249711475 58.749993046734154 2.0000935503074277
    vertex 62.250296249711475 10.249993046734163 1.9999810337528667
  endloop
endfacet
facet normal 0.9999999890292931 3.4277042669018526e-10 -0.0001481263430221177
  outer loop
    vertex 62.250296249711475 58.749993046734154 2.0000935503074277
    vertex 62.249999999999986 10.249999999999998 1.136924652502712e-06
    vertex 62.249999999999986 58.74999999999999 0.00011365347921341272
  endloop
endfacet
facet normal 0.7070935075998694 -0.7071200536212672 -3.573191246447389e-05
  outer loop
    vertex 62.249999999999986 10.249999999999998 1.136924652502712e-06
    vertex 59.79999999999999 7.8 0.0
    vertex 61.999999999999986 10.0 0.0
  endloop
endfacet
facet normal 0.7070935075998694 -0.7071200536212672 -3.573191246447389e-05
  outer loop
    vertex 59.79999999999999 7.8 0.0
    vertex 62.249999999999986 10.249999999999998 1.136924652502712e-06
    vertex 59.79999999999999 7.799999999999998 1.9999999999999998
  endloop
endfacet
facet normal 0.7070935075998694 -0.7071200536212672 -3.573191246447389e-05
  outer loop
    vertex 59.79999999999999 7.799999999999998 1.9999999999999998
    vertex 62.249999999999986 10.249999999999998 1.136924652502712e-06
    vertex 62.250296249711475 10.249993046734163 1.9999810337528667
  endloop
endfacet
facet normal 0.707094116432171 0.7071194448919668 -3.4098156432685955e-05
  outer loop
    vertex 59.800000000000004 61.19999999999998 1.9999999999999998
    vertex 61.999999999999986 58.99999999999999 0.00022617003377432276
    vertex 59.79999999999999 61.19999999999999 0.00022617003377432276
  endloop
endfacet
facet normal 0.707094116432171 0.7071194448919668 -3.4098156432685955e-05
  outer loop
    vertex 61.999999999999986 58.99999999999999 0.00022617003377432276
    vertex 62.250296249711475 58.749993046734154 2.0000935503074277
    vertex 62.249999999999986 58.74999999999999 0.00011365347921341272
  endloop
endfacet
facet normal 0.707094116432171 0.7071194448919668 -3.4098156432685955e-05
  outer loop
    vertex 62.250296249711475 58.749993046734154 2.0000935503074277
    vertex 61.999999999999986 58.99999999999999 0.00022617003377432276
    vertex 59.800000000000004 61.19999999999998 1.9999999999999998
  endloop
endfacet
facet normal -0.0020620090244413774 -3.1994628140398364e-05 -0.9999978735453025
  outer loop
    vertex 0.0 58.99999999999999 0.0011760841756261963
    vertex -0.24999999977521126 10.24999999977521 0.003248699194330922
    vertex -0.24999999977521128 58.75000000022478 0.002212391684978559
  endloop
endfacet
facet normal -0.0020620090244413774 -3.1994628140398364e-05 -0.9999978735453025
  outer loop
    vertex -0.24999999977521126 10.24999999977521 0.003248699194330922
    vertex 0.0 58.99999999999999 0.0011760841756261963
    vertex 0.0 9.999999999999996 0.0032540000000005798
  endloop
endfacet
facet normal -6.55331465515255e-05 4.994671035945396e-06 0.9999999978402301
  outer loop
    vertex -0.24588217426662104 10.250063892946542 2.0002412939945535
    vertex 0.0 58.99999999999999 1.9999999999999998
    vertex -0.2458821742666211 58.7500638933961 1.9992049864852015
  endloop
endfacet
facet normal -6.55331465515255e-05 4.994671035945396e-06 0.9999999978402301
  outer loop
    vertex 0.0 58.99999999999999 1.9999999999999998
    vertex -0.24588217426662104 10.250063892946542 2.0002412939945535
    vertex 0.0 9.999999999999996 1.9999999999999998
  endloop
endfacet
facet normal -6.55331465515255e-05 4.994671035945396e-06 0.9999999978402301
  outer loop
    vertex 0.0 58.99999999999999 1.9999999999999998
    vertex 0.0 9.999999999999996 1.9999999999999998
    vertex 2.199999999999996 7.799999999999998 1.9999999999999998
  endloop
endfacet
facet normal -6.55331465515255e-05 4.994671035945396e-06 0.9999999978402301
  outer loop
    vertex 0.0 58.99999999999999 1.9999999999999998
    vertex 2.199999999999996 7.799999999999998 1.9999999999999998
    vertex 2.1999999999999846 59.28963549469227 1.9999999999999998
  endloop
endfacet
facet normal -6.55331465515255e-05 4.994671035945396e-06 0.9999999978402301
  outer loop
    vertex 2.1999999999999846 59.28963549469227 1.9999999999999998
    vertex 2.199999999999996 7.799999999999998 1.9999999999999998
    vertex 2.199999999999996 9.710364505307728 1.9999999999999998
  endloop
endfacet
facet normal -6.55331465515255e-05 4.994671035945396e-06 0.9999999978402301
  outer loop
    vertex 2.1999999999999846 61.19999999999998 1.9999999999999998
    vertex 0.0 58.99999999999999 1.9999999999999998
    vertex 2.1999999999999846 59.28963549469227 1.9999999999999998
  endloop
endfacet
facet normal -0.0020620090244413774 -3.1994628140398364e-05 -0.9999978735453025
  outer loop
    vertex 0.0 58.99999999999999 0.0011760841756261963
    vertex -0.24999999977521126 10.24999999977521 0.003248699194330922
    vertex -0.24999999977521128 58.75000000022478 0.002212391684978559
  endloop
endfacet
facet normal -0.0020620090244413774 -3.1994628140398364e-05 -0.9999978735453025
  outer loop
    vertex -0.24999999977521126 10.24999999977521 0.003248699194330922
    vertex 0.0 58.99999999999999 0.0011760841756261963
    vertex 0.0 9.999999999999996 0.0032540000000005798
  endloop
endfacet
facet normal -6.553314655152548e-05 4.994671035945396e-06 0.9999999978402301
  outer loop
    vertex -0.24588217426662104 10.250063892946542 2.0002412939945535
    vertex 0.0 58.99999999999999 1.9999999999999998
    vertex -0.2458821742666211 58.7500638933961 1.9992049864852015
  endloop
endfacet
facet normal -6.553314655152548e-05 4.994671035945396e-06 0.9999999978402301
  outer loop
    vertex 0.0 58.99999999999999 1.9999999999999998
    vertex -0.24588217426662104 10.250063892946542 2.0002412939945535
    vertex 0.0 9.999999999999996 1.9999999999999998
  endloop
endfacet
facet normal -6.553314655152548e-05 4.994671035945396e-06 0.9999999978402301
  outer loop
    vertex 0.0 58.99999999999999 1.9999999999999998
    vertex 0.0 9.999999999999996 1.9999999999999998
    vertex 2.199999999999996 7.799999999999998 1.9999999999999998
  endloop
endfacet
facet normal -6.553314655152548e-05 4.994671035945396e-06 0.9999999978402301
  outer loop
    vertex 0.0 58.99999999999999 1.9999999999999998
    vertex 2.199999999999996 7.799999999999998 1.9999999999999998
    vertex 2.1999999999999846 59.28963549469227 1.9999999999999998
  endloop
endfacet
facet normal -6.553314655152548e-05 4.994671035945396e-06 0.9999999978402301
  outer loop
    vertex 2.1999999999999846 59.28963549469227 1.9999999999999998
    vertex 2.199999999999996 7.799999999999998 1.9999999999999998
    vertex 2.199999999999996 9.710364505307728 1.9999999999999998
  endloop
endfacet
facet normal -6.553314655152548e-05 4.994671035945396e-06 0.9999999978402301
  outer loop
    vertex 2.1999999999999846 61.19999999999998 1.9999999999999998
    vertex 0.0 58.99999999999999 1.9999999999999998
    vertex 2.1999999999999846 59.28963549469227 1.9999999999999998
  endloop
endfacet
facet normal -0.707106781186548 -0.7071067811865471 0.0
  outer loop
    vertex 0.0 9.999999999999996 1.9999999999999998
    vertex 2.199999999999996 7.799999999999998 0.0032540000000005798
    vertex 2.199999999999996 7.799999999999998 1.9999999999999998
  endloop
endfacet
facet normal -0.707106781186548 -0.7071067811865471 0.0
  outer loop
    vertex 2.199999999999996 7.799999999999998 0.0032540000000005798
    vertex 0.0 9.999999999999996 1.9999999999999998
    vertex 0.0 9.999999999999996 0.0032540000000005798
  endloop
endfacet
facet normal -0.9999978740571316 4.405928733917406e-08 0.002062009024087112
  outer loop
    vertex -0.24588217426662104 10.250063892946542 2.0002412939945535
    vertex -0.24999999977521128 58.75000000022478 0.002212391684978559
    vertex -0.24999999977521126 10.24999999977521 0.003248699194330922
  endloop
endfacet
facet normal -0.9999978740571316 4.405928733917406e-08 0.002062009024087112
  outer loop
    vertex -0.24999999977521128 58.75000000022478 0.002212391684978559
    vertex -0.24588217426662104 10.250063892946542 2.0002412939945535
    vertex -0.2458821742666211 58.7500638933961 1.9992049864852015
  endloop
endfacet
facet normal -0.7100694873324953 -0.7041312167861379 0.0007434424256354851
  outer loop
    vertex -0.24588217426662104 10.250063892946542 2.0002412939945535
    vertex 0.0 9.999999999999996 0.0032540000000005798
    vertex 0.0 9.999999999999996 1.9999999999999998
  endloop
endfacet
facet normal -0.7100694873324953 -0.7041312167861379 0.0007434424256354851
  outer loop
    vertex 0.0 9.999999999999996 0.0032540000000005798
    vertex -0.24588217426662104 10.250063892946542 2.0002412939945535
    vertex -0.24999999977521126 10.24999999977521 0.003248699194330922
  endloop
endfacet
facet normal -0.7100694873324953 -0.7041312167861379 0.0007434424256354853
  outer loop
    vertex -0.24588217426662104 10.250063892946542 2.0002412939945535
    vertex 0.0 9.999999999999996 0.0032540000000005798
    vertex 0.0 9.999999999999996 1.9999999999999998
  endloop
endfacet
facet normal -0.7100694873324953 -0.7041312167861379 0.0007434424256354853
  outer loop
    vertex 0.0 9.999999999999996 0.0032540000000005798
    vertex -0.24588217426662104 10.250063892946542 2.0002412939945535
    vertex -0.24999999977521126 10.24999999977521 0.003248699194330922
  endloop
endfacet
facet normal -0.7071067811865475 0.7071067811865476 -0.0
  outer loop
    vertex 0.0 58.99999999999999 1.9999999999999998
    vertex 2.1999999999999846 61.19999999999998 0.0011760841756261963
    vertex 0.0 58.99999999999999 0.0011760841756261963
  endloop
endfacet
facet normal -0.7071067811865475 0.7071067811865476 -0.0
  outer loop
    vertex 2.1999999999999846 61.19999999999998 0.0011760841756261963
    vertex 0.0 58.99999999999999 1.9999999999999998
    vertex 2.1999999999999846 61.19999999999998 1.9999999999999998
  endloop
endfacet
facet normal -0.7099787725384401 0.7042227091261474 0.0007200665521600679
  outer loop
    vertex -0.2458821742666211 58.7500638933961 1.9992049864852015
    vertex 0.0 58.99999999999999 0.0011760841756261963
    vertex -0.24999999977521128 58.75000000022478 0.002212391684978559
  endloop
endfacet
facet normal -0.7099787725384401 0.7042227091261474 0.0007200665521600679
  outer loop
    vertex 0.0 58.99999999999999 0.0011760841756261963
    vertex -0.2458821742666211 58.7500638933961 1.9992049864852015
    vertex 0.0 58.99999999999999 1.9999999999999998
  endloop
endfacet
facet normal -3.7136002595657526e-05 -1.4088455766616848e-05 -0.9999999992112165
  outer loop
    vertex 10.000000000000004 69.0 0.0011760841756261963
    vertex 13.551111260566397 28.388228567653783 0.0
    vertex 13.499999999999998 28.0 0.0
  endloop
endfacet
facet normal -3.7136002595657526e-05 -1.4088455766616848e-05 -0.9999999992112165
  outer loop
    vertex 13.551111260566397 28.388228567653783 0.0
    vertex 10.000000000000004 69.0 0.0011760841756261963
    vertex 13.700961894323338 28.749999999999996 0.0
  endloop
endfacet
facet normal -3.7136002595657526e-05 -1.4088455766616848e-05 -0.9999999992112165
  outer loop
    vertex 13.700961894323338 28.749999999999996 0.0
    vertex 10.000000000000004 69.0 0.0011760841756261963
    vertex 13.939339828220177 29.060660171779823 0.0
  endloop
endfacet
facet normal -3.7136002595657526e-05 -1.4088455766616848e-05 -0.9999999992112165
  outer loop
    vertex 13.939339828220177 29.060660171779823 0.0
    vertex 10.000000000000004 69.0 0.0011760841756261963
    vertex 51.76997723533997 69.0 0.00022617003377432276
  endloop
endfacet
facet normal -3.7136002595657526e-05 -1.4088455766616848e-05 -0.9999999992112165
  outer loop
    vertex 13.939339828220177 29.060660171779823 0.0
    vertex 51.76997723533997 69.0 0.00022617003377432276
    vertex 14.249999999999996 29.29903810567666 0.0
  endloop
endfacet
facet normal -3.7136002595657526e-05 -1.4088455766616848e-05 -0.9999999992112165
  outer loop
    vertex 14.249999999999996 29.29903810567666 0.0
    vertex 51.76997723533997 69.0 0.00022617003377432276
    vertex 14.611771432346217 29.448888739433603 0.0
  endloop
endfacet
facet normal -3.7136002595657526e-05 -1.4088455766616848e-05 -0.9999999992112165
  outer loop
    vertex 14.611771432346217 29.448888739433603 0.0
    vertex 51.76997723533997 69.0 0.00022617003377432276
    vertex 15.0 29.500000000000004 0.0
  endloop
endfacet
facet normal -3.7136002595657526e-05 -1.4088455766616848e-05 -0.9999999992112165
  outer loop
    vertex 15.0 29.500000000000004 0.0
    vertex 51.76997723533997 69.0 0.00022617003377432276
    vertex 15.388228567653785 29.448888739433606 0.0
  endloop
endfacet
facet normal -3.7136002595657526e-05 -1.4088455766616848e-05 -0.9999999992112165
  outer loop
    vertex 15.388228567653785 29.448888739433606 0.0
    vertex 51.76997723533997 69.0 0.00022617003377432276
    vertex 15.75 29.29903810567666 0.0
  endloop
endfacet
facet normal -3.7136002595657526e-05 -1.4088455766616848e-05 -0.9999999992112165
  outer loop
    vertex 15.75 29.29903810567666 0.0
    vertex 51.76997723533997 69.0 0.00022617003377432276
    vertex 16.060660171779826 29.060660171779823 0.0
  endloop
endfacet
facet normal -3.7136002595657526e-05 -1.4088455766616848e-05 -0.9999999992112165
  outer loop
    vertex 16.060660171779826 29.060660171779823 0.0
    vertex 51.76997723533997 69.0 0.00022617003377432276
    vertex 16.29903810567666 28.750000000000004 0.0
  endloop
endfacet
facet normal -3.7136002595657526e-05 -1.4088455766616848e-05 -0.9999999992112165
  outer loop
    vertex 16.29903810567666 28.750000000000004 0.0
    vertex 51.76997723533997 69.0 0.00022617003377432276
    vertex 16.448888739433603 28.388228567653783 0.0
  endloop
endfacet
facet normal -3.7136002595657526e-05 -1.4088455766616848e-05 -0.9999999992112165
  outer loop
    vertex 16.448888739433603 28.388228567653783 0.0
    vertex 51.76997723533997 69.0 0.00022617003377432276
    vertex 16.500000000000004 28.0 0.0
  endloop
endfacet
facet normal -3.7136002595657526e-05 -1.4088455766616848e-05 -0.9999999992112165
  outer loop
    vertex 16.500000000000004 28.0 0.0
    vertex 51.76997723533997 69.0 0.00022617003377432276
    vertex 28.660139609318716 16.53409890895675 0.001762339542904323
  endloop
endfacet
facet normal -3.7136002595657526e-05 -1.4088455766616848e-05 -0.9999999992112165
  outer loop
    vertex 28.660139609318716 16.53409890895675 0.001762339542904323
    vertex 51.76997723533997 69.0 0.00022617003377432276
    vertex 28.660139609318716 8.465901091043245 0.001762339542904323
  endloop
endfacet
facet normal -3.7136002595657526e-05 -1.4088455766616848e-05 -0.9999999992112165
  outer loop
    vertex 2.1999999999999846 61.19999999999998 0.0011760841756261963
    vertex 0.0 9.999999999999996 0.0032540000000005798
    vertex 0.0 58.99999999999999 0.0011760841756261963
  endloop
endfacet
facet normal -3.7136002595657526e-05 -1.4088455766616848e-05 -0.9999999992112165
  outer loop
    vertex 0.0 9.999999999999996 0.0032540000000005798
    vertex 2.1999999999999846 61.19999999999998 0.0011760841756261963
    vertex 2.199999999999996 7.799999999999998 0.0032540000000005798
  endloop
endfacet
facet normal -3.7136002595657526e-05 -1.4088455766616848e-05 -0.9999999992112165
  outer loop
    vertex 2.199999999999996 7.799999999999998 0.0032540000000005798
    vertex 2.1999999999999846 61.19999999999998 0.0011760841756261963
    vertex 4.249999999999985 53.124139279949404 0.003087453271641843
  endloop
endfacet
facet normal -3.7136002595657526e-05 -1.4088455766616848e-05 -0.9999999992112165
  outer loop
    vertex 4.249999999999985 53.124139279949404 0.003087453271641843
    vertex 2.1999999999999846 61.19999999999998 0.0011760841756261963
    vertex 7.799999999999997 66.8 0.0011760841756261963
  endloop
endfacet
facet normal -3.7136002595657526e-05 -1.4088455766616848e-05 -0.9999999992112165
  outer loop
    vertex 4.249999999999985 53.124139279949404 0.003087453271641843
    vertex 7.799999999999997 66.8 0.0011760841756261963
    vertex 6.249999999999984 53.124139279949404 0.003087453271641843
  endloop
endfacet
facet normal -3.7136002595657526e-05 -1.4088455766616848e-05 -0.9999999992112165
  outer loop
    vertex 6.249999999999984 53.124139279949404 0.003087453271641843
    vertex 7.799999999999997 66.8 0.0011760841756261963
    vertex 6.249999999999984 18.124139279949407 0.003087453271641843
  endloop
endfacet
facet normal -3.7136002595657526e-05 -1.4088455766616848e-05 -0.9999999992112165
  outer loop
    vertex 6.249999999999984 18.124139279949407 0.003087453271641843
    vertex 7.799999999999997 66.8 0.0011760841756261963
    vertex 7.799999999999986 2.2000000000000015 0.0032540000000005798
  endloop
endfacet
facet normal -3.7136002595657526e-05 -1.4088455766616848e-05 -0.9999999992112165
  outer loop
    vertex 7.799999999999986 2.2000000000000015 0.0032540000000005798
    vertex 7.799999999999997 66.8 0.0011760841756261963
    vertex 9.999999999999993 -1.836970198721029e-15 0.0032540000000005798
  endloop
endfacet
facet normal -3.7136002595657526e-05 -1.4088455766616848e-05 -0.9999999992112165
  outer loop
    vertex 9.999999999999993 -1.836970198721029e-15 0.0032540000000005798
    vertex 7.799999999999997 66.8 0.0011760841756261963
    vertex 9.477085727640091 68.47708572764009 0.0011760841756261963
  endloop
endfacet
facet normal -3.7136002595657526e-05 -1.4088455766616848e-05 -0.9999999992112165
  outer loop
    vertex 9.999999999999993 -1.836970198721029e-15 0.0032540000000005798
    vertex 9.477085727640091 68.47708572764009 0.0011760841756261963
    vertex 10.000000000000004 69.0 0.0011760841756261963
  endloop
endfacet
facet normal -3.7136002595657526e-05 -1.4088455766616848e-05 -0.9999999992112165
  outer loop
    vertex 9.999999999999993 -1.836970198721029e-15 0.0032540000000005798
    vertex 10.000000000000004 69.0 0.0011760841756261963
    vertex 13.499999999999998 28.0 0.0
  endloop
endfacet
facet normal -3.7136002595657526e-05 -1.4088455766616848e-05 -0.9999999992112165
  outer loop
    vertex 9.999999999999993 -1.836970198721029e-15 0.0032540000000005798
    vertex 13.499999999999998 28.0 0.0
    vertex 13.551111260566397 27.611771432346217 0.0
  endloop
endfacet
facet normal -3.7136002595657526e-05 -1.4088455766616848e-05 -0.9999999992112165
  outer loop
    vertex 9.999999999999993 -1.836970198721029e-15 0.0032540000000005798
    vertex 13.551111260566397 27.611771432346217 0.0
    vertex 16.160139609318716 8.465901091043245 0.001762339542904323
  endloop
endfacet
facet normal -3.7136002595657526e-05 -1.4088455766616848e-05 -0.9999999992112165
  outer loop
    vertex 9.999999999999993 -1.836970198721029e-15 0.0032540000000005798
    vertex 16.160139609318716 8.465901091043245 0.001762339542904323
    vertex 51.999999999999986 0.0 0.0
  endloop
endfacet
facet normal -3.7136002595657526e-05 -1.4088455766616848e-05 -0.9999999992112165
  outer loop
    vertex 16.160139609318716 8.465901091043245 0.001762339542904323
    vertex 13.551111260566397 27.611771432346217 0.0
    vertex 13.700961894323338 27.249999999999996 0.0
  endloop
endfacet
facet normal -3.7136002595657526e-05 -1.4088455766616848e-05 -0.9999999992112165
  outer loop
    vertex 16.160139609318716 8.465901091043245 0.001762339542904323
    vertex 13.700961894323338 27.249999999999996 0.0
    vertex 13.939339828220177 26.939339828220177 0.0
  endloop
endfacet
facet normal -3.7136002595657526e-05 -1.4088455766616848e-05 -0.9999999992112165
  outer loop
    vertex 16.160139609318716 8.465901091043245 0.001762339542904323
    vertex 13.939339828220177 26.939339828220177 0.0
    vertex 14.250000000000002 26.70096189432334 0.0
  endloop
endfacet
facet normal -3.7136002595657526e-05 -1.4088455766616848e-05 -0.9999999992112165
  outer loop
    vertex 16.160139609318716 8.465901091043245 0.001762339542904323
    vertex 14.250000000000002 26.70096189432334 0.0
    vertex 14.611771432346222 26.55111126056639 0.0
  endloop
endfacet
facet normal -3.7136002595657526e-05 -1.4088455766616848e-05 -0.9999999992112165
  outer loop
    vertex 16.160139609318716 8.465901091043245 0.001762339542904323
    vertex 14.611771432346222 26.55111126056639 0.0
    vertex 15.0 26.499999999999996 0.0
  endloop
endfacet
facet normal -3.7136002595657526e-05 -1.4088455766616848e-05 -0.9999999992112165
  outer loop
    vertex 16.160139609318716 8.465901091043245 0.001762339542904323
    vertex 15.0 26.499999999999996 0.0
    vertex 15.388228567653785 26.551111260566397 0.0
  endloop
endfacet
facet normal -3.7136002595657526e-05 -1.4088455766616848e-05 -0.9999999992112165
  outer loop
    vertex 16.160139609318716 8.465901091043245 0.001762339542904323
    vertex 15.388228567653785 26.551111260566397 0.0
    vertex 15.750000000000005 26.70096189432334 0.0
  endloop
endfacet
facet normal -3.7136002595657526e-05 -1.4088455766616848e-05 -0.9999999992112165
  outer loop
    vertex 16.160139609318716 8.465901091043245 0.001762339542904323
    vertex 15.750000000000005 26.70096189432334 0.0
    vertex 16.060660171779826 26.939339828220177 0.0
  endloop
endfacet
facet normal -3.7136002595657526e-05 -1.4088455766616848e-05 -0.9999999992112165
  outer loop
    vertex 16.160139609318716 8.465901091043245 0.001762339542904323
    vertex 16.060660171779826 26.939339828220177 0.0
    vertex 16.160139609318716 16.53409890895675 0.001762339542904323
  endloop
endfacet
facet normal -3.7136002595657526e-05 -1.4088455766616848e-05 -0.9999999992112165
  outer loop
    vertex 51.999999999999986 0.0 0.0
    vertex 16.160139609318716 8.465901091043245 0.001762339542904323
    vertex 28.660139609318716 8.465901091043245 0.001762339542904323
  endloop
endfacet
facet normal -3.7136002595657526e-05 -1.4088455766616848e-05 -0.9999999992112165
  outer loop
    vertex 51.999999999999986 0.0 0.0
    vertex 28.660139609318716 8.465901091043245 0.001762339542904323
    vertex 51.76997723533997 69.0 0.00022617003377432276
  endloop
endfacet
facet normal -3.7136002595657526e-05 -1.4088455766616848e-05 -0.9999999992112165
  outer loop
    vertex 51.999999999999986 0.0 0.0
    vertex 51.76997723533997 69.0 0.00022617003377432276
    vertex 51.999999999999986 69.0 0.00022617003377432276
  endloop
endfacet
facet normal -3.7136002595657526e-05 -1.4088455766616848e-05 -0.9999999992112165
  outer loop
    vertex 51.999999999999986 0.0 0.0
    vertex 51.999999999999986 69.0 0.00022617003377432276
    vertex 52.03935410349482 68.96064589650516 0.00022617003377432276
  endloop
endfacet
facet normal -3.7136002595657526e-05 -1.4088455766616848e-05 -0.9999999992112165
  outer loop
    vertex 51.999999999999986 0.0 0.0
    vertex 52.03935410349482 68.96064589650516 0.00022617003377432276
    vertex 54.2 2.2000000000000073 0.0
  endloop
endfacet
facet normal -3.7136002595657526e-05 -1.4088455766616848e-05 -0.9999999992112165
  outer loop
    vertex 54.2 2.2000000000000073 0.0
    vertex 52.03935410349482 68.96064589650516 0.00022617003377432276
    vertex 52.11041973078431 68.88958026921567 0.00022617003377432276
  endloop
endfacet
facet normal -3.7136002595657526e-05 -1.4088455766616848e-05 -0.9999999992112165
  outer loop
    vertex 54.2 2.2000000000000073 0.0
    vertex 52.11041973078431 68.88958026921567 0.00022617003377432276
    vertex 54.19999999999998 66.8 0.00022617003377432276
  endloop
endfacet
facet normal -3.7136002595657526e-05 -1.4088455766616848e-05 -0.9999999992112165
  outer loop
    vertex 54.2 2.2000000000000073 0.0
    vertex 54.19999999999998 66.8 0.00022617003377432276
    vertex 59.79999999999999 61.19999999999999 0.00022617003377432276
  endloop
endfacet
facet normal -3.7136002595657526e-05 -1.4088455766616848e-05 -0.9999999992112165
  outer loop
    vertex 54.2 2.2000000000000073 0.0
    vertex 59.79999999999999 61.19999999999999 0.00022617003377432276
    vertex 59.79999999999999 7.8 0.0
  endloop
endfacet
facet normal -3.7136002595657526e-05 -1.4088455766616848e-05 -0.9999999992112165
  outer loop
    vertex 59.79999999999999 7.8 0.0
    vertex 59.79999999999999 61.19999999999999 0.00022617003377432276
    vertex 61.999999999999986 58.99999999999999 0.00022617003377432276
  endloop
endfacet
facet normal -3.7136002595657526e-05 -1.4088455766616848e-05 -0.9999999992112165
  outer loop
    vertex 59.79999999999999 7.8 0.0
    vertex 61.999999999999986 58.99999999999999 0.00022617003377432276
    vertex 61.999999999999986 10.0 0.0
  endloop
endfacet
facet normal -3.7136002595657526e-05 -1.4088455766616848e-05 -0.9999999992112165
  outer loop
    vertex 16.29903810567666 27.25 0.0
    vertex 16.160139609318716 16.53409890895675 0.001762339542904323
    vertex 16.060660171779826 26.939339828220177 0.0
  endloop
endfacet
facet normal -3.7136002595657526e-05 -1.4088455766616848e-05 -0.9999999992112165
  outer loop
    vertex 16.160139609318716 16.53409890895675 0.001762339542904323
    vertex 16.29903810567666 27.25 0.0
    vertex 28.660139609318716 16.53409890895675 0.001762339542904323
  endloop
endfacet
facet normal -3.7136002595657526e-05 -1.4088455766616848e-05 -0.9999999992112165
  outer loop
    vertex 28.660139609318716 16.53409890895675 0.001762339542904323
    vertex 16.29903810567666 27.25 0.0
    vertex 16.44888873943361 27.61177143234622 0.0
  endloop
endfacet
facet normal -3.7136002595657526e-05 -1.4088455766616848e-05 -0.9999999992112165
  outer loop
    vertex 28.660139609318716 16.53409890895675 0.001762339542904323
    vertex 16.44888873943361 27.61177143234622 0.0
    vertex 16.500000000000004 28.0 0.0
  endloop
endfacet
facet normal -3.7136002595657526e-05 -1.4088455766616848e-05 -0.9999999992112165
  outer loop
    vertex 2.199999999999996 7.799999999999998 0.0032540000000005798
    vertex 4.249999999999985 18.124139279949407 0.003087453271641843
    vertex 7.799999999999986 2.2000000000000015 0.0032540000000005798
  endloop
endfacet
facet normal -3.7136002595657526e-05 -1.4088455766616848e-05 -0.9999999992112165
  outer loop
    vertex 4.249999999999985 18.124139279949407 0.003087453271641843
    vertex 2.199999999999996 7.799999999999998 0.0032540000000005798
    vertex 4.249999999999985 53.124139279949404 0.003087453271641843
  endloop
endfacet
facet normal -3.7136002595657526e-05 -1.4088455766616848e-05 -0.9999999992112165
  outer loop
    vertex 7.799999999999986 2.2000000000000015 0.0032540000000005798
    vertex 4.249999999999985 18.124139279949407 0.003087453271641843
    vertex 6.249999999999984 18.124139279949407 0.003087453271641843
  endloop
endfacet
facet normal -0.7071067811865475 0.7071067811865475 -0.0
  outer loop
    vertex 7.799999999999997 66.8 3.9999999999999996
    vertex 2.1999999999999846 61.19999999999998 1.9999999999999998
    vertex 2.1999999999999846 61.19999999999998 3.9999999999999996
  endloop
endfacet
facet normal -0.7071067811865475 0.7071067811865475 -0.0
  outer loop
    vertex 2.1999999999999846 61.19999999999998 1.9999999999999998
    vertex 7.799999999999997 66.8 3.9999999999999996
    vertex 2.1999999999999846 61.19999999999998 0.0011760841756261963
  endloop
endfacet
facet normal -0.7071067811865475 0.7071067811865475 -0.0
  outer loop
    vertex 2.1999999999999846 61.19999999999998 0.0011760841756261963
    vertex 7.799999999999997 66.8 3.9999999999999996
    vertex 7.799999999999997 66.8 0.0011760841756261963
  endloop
endfacet
facet normal -0.7071067811865475 0.7071067811865475 -0.0
  outer loop
    vertex 7.799999999999997 66.8 0.0011760841756261963
    vertex 7.799999999999997 66.8 3.9999999999999996
    vertex 7.799999999999997 66.8 1.9999999999999998
  endloop
endfacet
facet normal -0.0 -0.0 1.0
  outer loop
    vertex 13.500000000000004 25.40192378864668 3.9999999999999996
    vertex 16.160139609318716 16.53409890895675 3.9999999999999996
    vertex 16.500000000000004 25.40192378864668 3.9999999999999996
  endloop
endfacet
facet normal -0.0 -0.0 1.0
  outer loop
    vertex 16.160139609318716 16.53409890895675 3.9999999999999996
    vertex 13.500000000000004 25.40192378864668 3.9999999999999996
    vertex 16.160139609318716 8.465901091043245 3.9999999999999996
  endloop
endfacet
facet normal -0.0 -0.0 1.0
  outer loop
    vertex 16.500000000000004 25.40192378864668 3.9999999999999996
    vertex 16.160139609318716 16.53409890895675 3.9999999999999996
    vertex 28.660139609318716 16.53409890895675 3.9999999999999996
  endloop
endfacet
facet normal -0.0 -0.0 1.0
  outer loop
    vertex 16.500000000000004 25.40192378864668 3.9999999999999996
    vertex 28.660139609318716 16.53409890895675 3.9999999999999996
    vertex 18.0 28.0 3.9999999999999996
  endloop
endfacet
facet normal -0.0 -0.0 1.0
  outer loop
    vertex 2.1999999999999846 61.19999999999998 3.9999999999999996
    vertex 4.249999999999985 53.124139279949404 3.9999999999999996
    vertex 7.799999999999997 66.8 3.9999999999999996
  endloop
endfacet
facet normal -0.0 -0.0 1.0
  outer loop
    vertex 4.249999999999985 53.124139279949404 3.9999999999999996
    vertex 2.1999999999999846 61.19999999999998 3.9999999999999996
    vertex 2.199999999999996 7.799999999999998 3.9999999999999996
  endloop
endfacet
facet normal -0.0 -0.0 1.0
  outer loop
    vertex 4.249999999999985 53.124139279949404 3.9999999999999996
    vertex 2.199999999999996 7.799999999999998 3.9999999999999996
    vertex 4.249999999999985 18.124139279949407 3.9999999999999996
  endloop
endfacet
facet normal -0.0 -0.0 1.0
  outer loop
    vertex 7.799999999999997 66.8 3.9999999999999996
    vertex 4.249999999999985 53.124139279949404 3.9999999999999996
    vertex 6.249999999999984 53.124139279949404 3.9999999999999996
  endloop
endfacet
facet normal -0.0 -0.0 1.0
  outer loop
    vertex 7.799999999999997 66.8 3.9999999999999996
    vertex 6.249999999999984 53.124139279949404 3.9999999999999996
    vertex 7.799999999999986 2.2000000000000015 3.9999999999999996
  endloop
endfacet
facet normal -0.0 -0.0 1.0
  outer loop
    vertex 7.799999999999997 66.8 3.9999999999999996
    vertex 7.799999999999986 2.2000000000000015 3.9999999999999996
    vertex 12.0 28.0 3.9999999999999996
  endloop
endfacet
facet normal -0.0 -0.0 1.0
  outer loop
    vertex 12.0 28.0 3.9999999999999996
    vertex 7.799999999999986 2.2000000000000015 3.9999999999999996
    vertex 16.160139609318716 8.465901091043245 3.9999999999999996
  endloop
endfacet
facet normal -0.0 -0.0 1.0
  outer loop
    vertex 16.160139609318716 8.465901091043245 3.9999999999999996
    vertex 7.799999999999986 2.2000000000000015 3.9999999999999996
    vertex 54.2 2.2000000000000015 3.9999999999999996
  endloop
endfacet
facet normal -0.0 -0.0 1.0
  outer loop
    vertex 12.0 28.0 3.9999999999999996
    vertex 16.160139609318716 8.465901091043245 3.9999999999999996
    vertex 13.500000000000004 25.40192378864668 3.9999999999999996
  endloop
endfacet
facet normal -0.0 -0.0 1.0
  outer loop
    vertex 16.160139609318716 8.465901091043245 3.9999999999999996
    vertex 54.2 2.2000000000000015 3.9999999999999996
    vertex 28.660139609318716 8.465901091043245 3.9999999999999996
  endloop
endfacet
facet normal -0.0 -0.0 1.0
  outer loop
    vertex 28.660139609318716 8.465901091043245 3.9999999999999996
    vertex 54.2 2.2000000000000015 3.9999999999999996
    vertex 28.660139609318716 16.53409890895675 3.9999999999999996
  endloop
endfacet
facet normal -0.0 -0.0 1.0
  outer loop
    vertex 28.660139609318716 16.53409890895675 3.9999999999999996
    vertex 54.2 2.2000000000000015 3.9999999999999996
    vertex 35.74999999999999 51.249999999999986 3.9999999999999996
  endloop
endfacet
facet normal -0.0 -0.0 1.0
  outer loop
    vertex 35.74999999999999 51.249999999999986 3.9999999999999996
    vertex 54.2 2.2000000000000015 3.9999999999999996
    vertex 35.74999999999999 66.8 3.9999999999999996
  endloop
endfacet
facet normal -0.0 -0.0 1.0
  outer loop
    vertex 35.74999999999999 66.8 3.9999999999999996
    vertex 54.2 2.2000000000000015 3.9999999999999996
    vertex 54.19999999999999 66.8 3.9999999999999996
  endloop
endfacet
facet normal -0.0 -0.0 1.0
  outer loop
    vertex 54.19999999999999 66.8 3.9999999999999996
    vertex 54.2 2.2000000000000015 3.9999999999999996
    vertex 59.800000000000004 61.19999999999998 3.9999999999999996
  endloop
endfacet
facet normal -0.0 -0.0 1.0
  outer loop
    vertex 59.800000000000004 61.19999999999998 3.9999999999999996
    vertex 54.2 2.2000000000000015 3.9999999999999996
    vertex 59.79999999999999 7.799999999999998 3.9999999999999996
  endloop
endfacet
facet normal -0.0 -0.0 1.0
  outer loop
    vertex 18.0 28.0 3.9999999999999996
    vertex 17.749999999999986 51.249999999999986 3.9999999999999996
    vertex 16.499999999999996 30.598076211353316 3.9999999999999996
  endloop
endfacet
facet normal -0.0 -0.0 1.0
  outer loop
    vertex 17.749999999999986 51.249999999999986 3.9999999999999996
    vertex 18.0 28.0 3.9999999999999996
    vertex 35.74999999999999 51.249999999999986 3.9999999999999996
  endloop
endfacet
facet normal -0.0 -0.0 1.0
  outer loop
    vertex 35.74999999999999 51.249999999999986 3.9999999999999996
    vertex 18.0 28.0 3.9999999999999996
    vertex 28.660139609318716 16.53409890895675 3.9999999999999996
  endloop
endfacet
facet normal -0.0 -0.0 1.0
  outer loop
    vertex 12.0 28.0 3.9999999999999996
    vertex 17.74999999999999 66.8 3.9999999999999996
    vertex 7.799999999999997 66.8 3.9999999999999996
  endloop
endfacet
facet normal -0.0 -0.0 1.0
  outer loop
    vertex 17.74999999999999 66.8 3.9999999999999996
    vertex 12.0 28.0 3.9999999999999996
    vertex 13.499999999999998 30.598076211353316 3.9999999999999996
  endloop
endfacet
facet normal -0.0 -0.0 1.0
  outer loop
    vertex 17.74999999999999 66.8 3.9999999999999996
    vertex 13.499999999999998 30.598076211353316 3.9999999999999996
    vertex 16.499999999999996 30.598076211353316 3.9999999999999996
  endloop
endfacet
facet normal -0.0 -0.0 1.0
  outer loop
    vertex 17.74999999999999 66.8 3.9999999999999996
    vertex 16.499999999999996 30.598076211353316 3.9999999999999996
    vertex 17.749999999999986 51.249999999999986 3.9999999999999996
  endloop
endfacet
facet normal -0.0 -0.0 1.0
  outer loop
    vertex 7.799999999999986 2.2000000000000015 3.9999999999999996
    vertex 4.249999999999985 18.124139279949407 3.9999999999999996
    vertex 2.199999999999996 7.799999999999998 3.9999999999999996
  endloop
endfacet
facet normal -0.0 -0.0 1.0
  outer loop
    vertex 4.249999999999985 18.124139279949407 3.9999999999999996
    vertex 7.799999999999986 2.2000000000000015 3.9999999999999996
    vertex 6.249999999999984 18.124139279949407 3.9999999999999996
  endloop
endfacet
facet normal -0.0 -0.0 1.0
  outer loop
    vertex 6.249999999999984 18.124139279949407 3.9999999999999996
    vertex 7.799999999999986 2.2000000000000015 3.9999999999999996
    vertex 6.249999999999984 53.124139279949404 3.9999999999999996
  endloop
endfacet
facet normal -1.0 -2.1613635244528529e-16 -3.6284134328247516e-31
  outer loop
    vertex 2.1999999999999846 61.19999999999998 3.9999999999999996
    vertex 2.199999999999996 7.799999999999998 1.9999999999999998
    vertex 2.199999999999996 7.799999999999998 3.9999999999999996
  endloop
endfacet
facet normal -1.0 -2.1613635244528529e-16 -3.6284134328247516e-31
  outer loop
    vertex 2.199999999999996 7.799999999999998 1.9999999999999998
    vertex 2.1999999999999846 61.19999999999998 3.9999999999999996
    vertex 2.199999999999996 9.710364505307728 1.9999999999999998
  endloop
endfacet
facet normal -1.0 -2.1613635244528529e-16 -3.6284134328247516e-31
  outer loop
    vertex 2.199999999999996 9.710364505307728 1.9999999999999998
    vertex 2.1999999999999846 61.19999999999998 3.9999999999999996
    vertex 2.1999999999999846 59.28963549469227 1.9999999999999998
  endloop
endfacet
facet normal -1.0 -2.1613635244528529e-16 -3.6284134328247516e-31
  outer loop
    vertex 2.1999999999999846 59.28963549469227 1.9999999999999998
    vertex 2.1999999999999846 61.19999999999998 3.9999999999999996
    vertex 2.1999999999999846 61.19999999999998 1.9999999999999998
  endloop
endfacet
facet normal 2.634882425208176e-18 6.755326305545567e-17 1.0
  outer loop
    vertex 35.74999999999999 51.249999999999986 2.0000000000000013
    vertex 17.74999999999999 66.8 2.0000000000000013
    vertex 17.749999999999986 51.249999999999986 2.0000000000000013
  endloop
endfacet
facet normal 2.634882425208176e-18 6.755326305545567e-17 1.0
  outer loop
    vertex 9.71036450530773 66.8 1.9999999999999998
    vertex 10.250000000000007 69.25 1.9999999999999998
    vertex 7.799999999999997 66.8 1.9999999999999998
  endloop
endfacet
facet normal 2.634882425208176e-18 6.755326305545567e-17 1.0
  outer loop
    vertex 10.250000000000007 69.25 1.9999999999999998
    vertex 9.71036450530773 66.8 1.9999999999999998
    vertex 17.74999999999999 66.8 2.0000000000000013
  endloop
endfacet
facet normal 2.634882425208176e-18 6.755326305545567e-17 1.0
  outer loop
    vertex 10.250000000000007 69.25 1.9999999999999998
    vertex 17.74999999999999 66.8 2.0000000000000013
    vertex 51.749999999999986 69.25 1.9999999999999998
  endloop
endfacet
facet normal 2.634882425208176e-18 6.755326305545567e-17 1.0
  outer loop
    vertex 51.749999999999986 69.25 1.9999999999999998
    vertex 17.74999999999999 66.8 2.0000000000000013
    vertex 35.74999999999999 66.8 2.0000000000000013
  endloop
endfacet
facet normal 2.634882425208176e-18 6.755326305545567e-17 1.0
  outer loop
    vertex 35.74999999999999 66.8 2.0000000000000013
    vertex 17.74999999999999 66.8 2.0000000000000013
    vertex 35.74999999999999 51.249999999999986 2.0000000000000013
  endloop
endfacet
facet normal 2.634882425208176e-18 6.755326305545567e-17 1.0
  outer loop
    vertex 51.749999999999986 69.25 1.9999999999999998
    vertex 35.74999999999999 66.8 2.0000000000000013
    vertex 52.289635494692256 66.8 1.9999999999999998
  endloop
endfacet
facet normal 2.634882425208176e-18 6.755326305545567e-17 1.0
  outer loop
    vertex 51.749999999999986 69.25 1.9999999999999998
    vertex 52.289635494692256 66.8 1.9999999999999998
    vertex 54.19999999999999 66.8 1.9999999999999998
  endloop
endfacet
facet normal -1.4626305602661537e-16 1.0 1.7016674981695261e-15
  outer loop
    vertex 35.74999999999999 66.8 2.0000000000000013
    vertex 54.19999999999999 66.8 1.9999999999999998
    vertex 52.289635494692256 66.8 1.9999999999999998
  endloop
endfacet
facet normal -1.4626305602661537e-16 1.0 1.7016674981695261e-15
  outer loop
    vertex 54.19999999999999 66.8 1.9999999999999998
    vertex 35.74999999999999 66.8 2.0000000000000013
    vertex 54.19999999999999 66.8 3.9999999999999996
  endloop
endfacet
facet normal -1.4626305602661537e-16 1.0 1.7016674981695261e-15
  outer loop
    vertex 54.19999999999999 66.8 3.9999999999999996
    vertex 35.74999999999999 66.8 2.0000000000000013
    vertex 35.74999999999999 66.8 3.9999999999999996
  endloop
endfacet
facet normal -1.3061724034523258e-05 0.0021713761252762642 -0.999997642474778
  outer loop
    vertex 10.250000000000007 69.25 0.0011760841756254913
    vertex 51.76997723533997 69.0 0.00022617003377432276
    vertex 10.000000000000004 69.0 0.0011760841756261963
  endloop
endfacet
facet normal -1.3061724034523258e-05 0.0021713761252762642 -0.999997642474778
  outer loop
    vertex 51.76997723533997 69.0 0.00022617003377432276
    vertex 10.250000000000007 69.25 0.0011760841756254913
    vertex 51.749999999999986 69.25 0.0011760841756254913
  endloop
endfacet
facet normal -1.3061724034523258e-05 0.0021713761252762642 -0.999997642474778
  outer loop
    vertex 51.76997723533997 69.0 0.00022617003377432276
    vertex 51.749999999999986 69.25 0.0011760841756254913
    vertex 51.999999999999986 69.0 0.00022617003377432276
  endloop
endfacet
facet normal 0.7071067811865475 0.7071067811865475 -0.0
  outer loop
    vertex 54.19999999999998 66.8 0.00022617003377432276
    vertex 51.749999999999986 69.25 1.9999999999999998
    vertex 54.19999999999999 66.8 1.9999999999999998
  endloop
endfacet
facet normal 0.7071067811865475 0.7071067811865475 -0.0
  outer loop
    vertex 51.749999999999986 69.25 1.9999999999999998
    vertex 54.19999999999998 66.8 0.00022617003377432276
    vertex 52.11041973078431 68.88958026921567 0.00022617003377432276
  endloop
endfacet
facet normal 0.7071067811865475 0.7071067811865475 -0.0
  outer loop
    vertex 51.749999999999986 69.25 1.9999999999999998
    vertex 52.11041973078431 68.88958026921567 0.00022617003377432276
    vertex 52.03935410349482 68.96064589650516 0.00022617003377432276
  endloop
endfacet
facet normal 0.7071067811865475 0.7071067811865475 -0.0
  outer loop
    vertex 51.749999999999986 69.25 1.9999999999999998
    vertex 52.03935410349482 68.96064589650516 0.00022617003377432276
    vertex 51.999999999999986 69.0 0.00022617003377432276
  endloop
endfacet
facet normal 0.7071067811865475 0.7071067811865475 -0.0
  outer loop
    vertex 51.749999999999986 69.25 1.9999999999999998
    vertex 51.999999999999986 69.0 0.00022617003377432276
    vertex 51.749999999999986 69.25 0.0011760841756254913
  endloop
endfacet
facet normal 0.0 1.0 0.0
  outer loop
    vertex 10.250000000000007 69.25 1.9999999999999998
    vertex 51.749999999999986 69.25 0.0011760841756254913
    vertex 10.250000000000007 69.25 0.0011760841756254913
  endloop
endfacet
facet normal 0.0 1.0 0.0
  outer loop
    vertex 51.749999999999986 69.25 0.0011760841756254913
    vertex 10.250000000000007 69.25 1.9999999999999998
    vertex 51.749999999999986 69.25 1.9999999999999998
  endloop
endfacet
facet normal -0.7071067811865474 0.7071067811865478 -2.949052367649842e-16
  outer loop
    vertex 7.799999999999997 66.8 1.9999999999999998
    vertex 9.477085727640091 68.47708572764009 0.0011760841756261963
    vertex 7.799999999999997 66.8 0.0011760841756261963
  endloop
endfacet
facet normal -0.7071067811865474 0.7071067811865478 -2.949052367649842e-16
  outer loop
    vertex 9.477085727640091 68.47708572764009 0.0011760841756261963
    vertex 7.799999999999997 66.8 1.9999999999999998
    vertex 10.000000000000004 69.0 0.0011760841756261963
  endloop
endfacet
facet normal -0.7071067811865474 0.7071067811865478 -2.949052367649842e-16
  outer loop
    vertex 10.000000000000004 69.0 0.0011760841756261963
    vertex 10.250000000000007 69.25 1.9999999999999998
    vertex 10.250000000000007 69.25 0.0011760841756254913
  endloop
endfacet
facet normal -0.7071067811865474 0.7071067811865478 -2.949052367649842e-16
  outer loop
    vertex 10.250000000000007 69.25 1.9999999999999998
    vertex 10.000000000000004 69.0 0.0011760841756261963
    vertex 7.799999999999997 66.8 1.9999999999999998
  endloop
endfacet
facet normal 1.0 -1.8134832685195474e-16 -0.0
  outer loop
    vertex 17.74999999999999 66.8 2.0000000000000013
    vertex 17.749999999999986 51.249999999999986 3.9999999999999996
    vertex 17.749999999999986 51.249999999999986 2.0000000000000013
  endloop
endfacet
facet normal 1.0 -1.8134832685195474e-16 -0.0
  outer loop
    vertex 17.749999999999986 51.249999999999986 3.9999999999999996
    vertex 17.74999999999999 66.8 2.0000000000000013
    vertex 17.74999999999999 66.8 3.9999999999999996
  endloop
endfacet
facet normal -0.0 1.0 -0.0
  outer loop
    vertex 17.749999999999986 51.249999999999986 3.9999999999999996
    vertex 35.74999999999999 51.249999999999986 2.0000000000000013
    vertex 17.749999999999986 51.249999999999986 2.0000000000000013
  endloop
endfacet
facet normal -0.0 1.0 -0.0
  outer loop
    vertex 35.74999999999999 51.249999999999986 2.0000000000000013
    vertex 17.749999999999986 51.249999999999986 3.9999999999999996
    vertex 35.74999999999999 51.249999999999986 3.9999999999999996
  endloop
endfacet
facet normal -1.0 0.0 0.0
  outer loop
    vertex 35.74999999999999 66.8 3.9999999999999996
    vertex 35.74999999999999 51.249999999999986 2.0000000000000013
    vertex 35.74999999999999 51.249999999999986 3.9999999999999996
  endloop
endfacet
facet normal -1.0 0.0 0.0
  outer loop
    vertex 35.74999999999999 51.249999999999986 2.0000000000000013
    vertex 35.74999999999999 66.8 3.9999999999999996
    vertex 35.74999999999999 66.8 2.0000000000000013
  endloop
endfacet
facet normal -0.0 1.0 -0.0
  outer loop
    vertex 7.799999999999997 66.8 3.9999999999999996
    vertex 9.71036450530773 66.8 1.9999999999999998
    vertex 7.799999999999997 66.8 1.9999999999999998
  endloop
endfacet
facet normal -0.0 1.0 -0.0
  outer loop
    vertex 9.71036450530773 66.8 1.9999999999999998
    vertex 7.799999999999997 66.8 3.9999999999999996
    vertex 17.74999999999999 66.8 2.0000000000000013
  endloop
endfacet
facet normal -0.0 1.0 -0.0
  outer loop
    vertex 17.74999999999999 66.8 2.0000000000000013
    vertex 7.799999999999997 66.8 3.9999999999999996
    vertex 17.74999999999999 66.8 3.9999999999999996
  endloop
endfacet
facet normal -1.0 0.0 -0.0
  outer loop
    vertex 6.249999999999984 53.124139279949404 3.9999999999999996
    vertex 6.249999999999984 18.124139279949407 0.003087453271641843
    vertex 6.249999999999984 18.124139279949407 3.9999999999999996
  endloop
endfacet
facet normal -1.0 0.0 -0.0
  outer loop
    vertex 6.249999999999984 18.124139279949407 0.003087453271641843
    vertex 6.249999999999984 53.124139279949404 3.9999999999999996
    vertex 6.249999999999984 53.124139279949404 0.003087453271641843
  endloop
endfacet
facet normal -0.0 -0.9999999999999999 -0.0
  outer loop
    vertex 6.249999999999984 53.124139279949404 3.9999999999999996
    vertex 4.249999999999985 53.124139279949404 0.003087453271641843
    vertex 6.249999999999984 53.124139279949404 0.003087453271641843
  endloop
endfacet
facet normal -0.0 -0.9999999999999999 -0.0
  outer loop
    vertex 4.249999999999985 53.124139279949404 0.003087453271641843
    vertex 6.249999999999984 53.124139279949404 3.9999999999999996
    vertex 4.249999999999985 53.124139279949404 3.9999999999999996
  endloop
endfacet
facet normal 1.0 0.0 0.0
  outer loop
    vertex 4.249999999999985 53.124139279949404 0.003087453271641843
    vertex 4.249999999999985 18.124139279949407 3.9999999999999996
    vertex 4.249999999999985 18.124139279949407 0.003087453271641843
  endloop
endfacet
facet normal 1.0 0.0 0.0
  outer loop
    vertex 4.249999999999985 18.124139279949407 3.9999999999999996
    vertex 4.249999999999985 53.124139279949404 0.003087453271641843
    vertex 4.249999999999985 53.124139279949404 3.9999999999999996
  endloop
endfacet
facet normal -0.0 0.9999999999999999 -0.0
  outer loop
    vertex 4.249999999999985 18.124139279949407 3.9999999999999996
    vertex 6.249999999999984 18.124139279949407 0.003087453271641843
    vertex 4.249999999999985 18.124139279949407 0.003087453271641843
  endloop
endfacet
facet normal -0.0 0.9999999999999999 -0.0
  outer loop
    vertex 6.249999999999984 18.124139279949407 0.003087453271641843
    vertex 4.249999999999985 18.124139279949407 3.9999999999999996
    vertex 6.249999999999984 18.124139279949407 3.9999999999999996
  endloop
endfacet
endsolid mr3020_top
